<svg width="81" height="19" viewBox="0 0 81 19" fill="none" xmlns="http://www.w3.org/2000/svg">
<path d="M0.589844 18V0.621094H4.45703V15.1699H13.8906V18H0.589844ZM25.9023 18.3867C24.7539 18.3867 23.7109 18.2773 22.7734 18.0586C21.8398 17.8398 21.0059 17.5332 20.2715 17.1387C19.541 16.7402 18.9082 16.2656 18.373 15.7148C17.8379 15.1602 17.3945 14.5469 17.043 13.875C16.6953 13.1992 16.4355 12.4766 16.2637 11.707C16.0957 10.9375 16.0117 10.1387 16.0117 9.31055C16.0117 8.49805 16.0996 7.71094 16.2754 6.94922C16.4551 6.18359 16.7246 5.46484 17.084 4.79297C17.4473 4.12109 17.9004 3.50586 18.4434 2.94727C18.9902 2.38867 19.6289 1.91016 20.3594 1.51172C21.0938 1.10938 21.9219 0.796875 22.8438 0.574219C23.7656 0.351562 24.7852 0.240234 25.9023 0.240234C27.0508 0.240234 28.0918 0.349609 29.0254 0.568359C29.959 0.787109 30.791 1.09375 31.5215 1.48828C32.2559 1.88281 32.8906 2.35742 33.4258 2.91211C33.9609 3.4668 34.4023 4.08008 34.75 4.75195C35.1016 5.42383 35.3613 6.14453 35.5293 6.91406C35.7012 7.68359 35.7871 8.48242 35.7871 9.31055C35.7871 10.123 35.6973 10.9121 35.5176 11.6777C35.3418 12.4395 35.0723 13.1562 34.709 13.8281C34.3496 14.5 33.8965 15.1172 33.3496 15.6797C32.8066 16.2383 32.168 16.7188 31.4336 17.1211C30.7031 17.5195 29.877 17.8301 28.9551 18.0527C28.0332 18.2754 27.0156 18.3867 25.9023 18.3867ZM25.9023 15.334C26.6094 15.334 27.2461 15.2617 27.8125 15.1172C28.3789 14.9688 28.8809 14.7617 29.3184 14.4961C29.7559 14.2305 30.1309 13.9141 30.4434 13.5469C30.7598 13.1758 31.0176 12.7676 31.2168 12.3223C31.4199 11.877 31.5684 11.4004 31.6621 10.8926C31.7559 10.3809 31.8027 9.85352 31.8027 9.31055C31.8027 8.76758 31.7559 8.24219 31.6621 7.73438C31.5684 7.22266 31.4199 6.74414 31.2168 6.29883C31.0176 5.85352 30.7598 5.44727 30.4434 5.08008C30.1309 4.70898 29.7559 4.39062 29.3184 4.125C28.8809 3.85938 28.3789 3.6543 27.8125 3.50977C27.2461 3.36133 26.6094 3.28711 25.9023 3.28711C25.1953 3.28711 24.5566 3.36133 23.9863 3.50977C23.4199 3.6543 22.918 3.85938 22.4805 4.125C22.043 4.39062 21.668 4.70898 21.3555 5.08008C21.043 5.44727 20.7852 5.85352 20.582 6.29883C20.3828 6.74414 20.2344 7.22266 20.1367 7.73438C20.043 8.24219 19.9961 8.76758 19.9961 9.31055C19.9961 9.85352 20.043 10.3809 20.1367 10.8926C20.2344 11.4004 20.3828 11.877 20.582 12.3223C20.7852 12.7676 21.043 13.1758 21.3555 13.5469C21.668 13.9141 22.043 14.2305 22.4805 14.4961C22.918 14.7617 23.4199 14.9688 23.9863 15.1172C24.5566 15.2617 25.1953 15.334 25.9023 15.334ZM53.8633 9.59766H57.7305V17.0625C57.3711 17.1836 56.9805 17.3008 56.5586 17.4141C56.1406 17.5234 55.7012 17.627 55.2402 17.7246C54.7832 17.8223 54.3086 17.9121 53.8164 17.9941C53.3281 18.0762 52.832 18.1465 52.3281 18.2051C51.8242 18.2637 51.3203 18.3086 50.8164 18.3398C50.3125 18.3711 49.8164 18.3867 49.3281 18.3867C47.7266 18.3867 46.2793 18.1973 44.9863 17.8184C43.6973 17.4395 42.5977 16.873 41.6875 16.1191C40.7812 15.3613 40.084 14.416 39.5957 13.2832C39.1074 12.1465 38.8633 10.8223 38.8633 9.31055C38.8633 8.42773 38.9609 7.58984 39.1562 6.79688C39.3555 6.00391 39.6504 5.27148 40.041 4.59961C40.4355 3.92773 40.9277 3.32422 41.5176 2.78906C42.1074 2.25 42.793 1.79297 43.5742 1.41797C44.3594 1.03906 45.2402 0.748047 46.2168 0.544922C47.1973 0.341797 48.2734 0.240234 49.4453 0.240234C49.9375 0.240234 50.418 0.253906 50.8867 0.28125C51.3555 0.308594 51.8066 0.349609 52.2402 0.404297C52.6777 0.455078 53.0938 0.517578 53.4883 0.591797C53.8867 0.666016 54.2676 0.75 54.6309 0.84375C54.9941 0.9375 55.3418 1.04102 55.6738 1.1543C56.0098 1.26367 56.334 1.38281 56.6465 1.51172V4.60547C56.2129 4.45703 55.7383 4.30273 55.2227 4.14258C54.707 3.97852 54.1562 3.83008 53.5703 3.69727C52.9844 3.56445 52.3691 3.45508 51.7246 3.36914C51.084 3.2832 50.4219 3.24023 49.7383 3.24023C48.5312 3.24023 47.4922 3.37305 46.6211 3.63867C45.75 3.9043 45.0332 4.29492 44.4707 4.81055C43.9082 5.32617 43.4922 5.96094 43.2227 6.71484C42.957 7.46875 42.8242 8.33398 42.8242 9.31055C42.8242 9.9668 42.8828 10.5742 43 11.1328C43.1211 11.6875 43.3027 12.1914 43.5449 12.6445C43.791 13.0938 44.0996 13.4922 44.4707 13.8398C44.8457 14.1836 45.2871 14.4727 45.7949 14.707C46.3027 14.9375 46.8789 15.1133 47.5234 15.2344C48.1719 15.3516 48.8926 15.4102 49.6855 15.4102C50.1113 15.4102 50.5117 15.3984 50.8867 15.375C51.2656 15.3477 51.625 15.3105 51.9648 15.2637C52.3047 15.2129 52.6309 15.1543 52.9434 15.0879C53.2559 15.0176 53.5625 14.9395 53.8633 14.8535V9.59766ZM70.9727 18.3867C69.8242 18.3867 68.7812 18.2773 67.8438 18.0586C66.9102 17.8398 66.0762 17.5332 65.3418 17.1387C64.6113 16.7402 63.9785 16.2656 63.4434 15.7148C62.9082 15.1602 62.4648 14.5469 62.1133 13.875C61.7656 13.1992 61.5059 12.4766 61.334 11.707C61.166 10.9375 61.082 10.1387 61.082 9.31055C61.082 8.49805 61.1699 7.71094 61.3457 6.94922C61.5254 6.18359 61.7949 5.46484 62.1543 4.79297C62.5176 4.12109 62.9707 3.50586 63.5137 2.94727C64.0605 2.38867 64.6992 1.91016 65.4297 1.51172C66.1641 1.10938 66.9922 0.796875 67.9141 0.574219C68.8359 0.351562 69.8555 0.240234 70.9727 0.240234C72.1211 0.240234 73.1621 0.349609 74.0957 0.568359C75.0293 0.787109 75.8613 1.09375 76.5918 1.48828C77.3262 1.88281 77.9609 2.35742 78.4961 2.91211C79.0312 3.4668 79.4727 4.08008 79.8203 4.75195C80.1719 5.42383 80.4316 6.14453 80.5996 6.91406C80.7715 7.68359 80.8574 8.48242 80.8574 9.31055C80.8574 10.123 80.7676 10.9121 80.5879 11.6777C80.4121 12.4395 80.1426 13.1562 79.7793 13.8281C79.4199 14.5 78.9668 15.1172 78.4199 15.6797C77.877 16.2383 77.2383 16.7188 76.5039 17.1211C75.7734 17.5195 74.9473 17.8301 74.0254 18.0527C73.1035 18.2754 72.0859 18.3867 70.9727 18.3867ZM70.9727 15.334C71.6797 15.334 72.3164 15.2617 72.8828 15.1172C73.4492 14.9688 73.9512 14.7617 74.3887 14.4961C74.8262 14.2305 75.2012 13.9141 75.5137 13.5469C75.8301 13.1758 76.0879 12.7676 76.2871 12.3223C76.4902 11.877 76.6387 11.4004 76.7324 10.8926C76.8262 10.3809 76.873 9.85352 76.873 9.31055C76.873 8.76758 76.8262 8.24219 76.7324 7.73438C76.6387 7.22266 76.4902 6.74414 76.2871 6.29883C76.0879 5.85352 75.8301 5.44727 75.5137 5.08008C75.2012 4.70898 74.8262 4.39062 74.3887 4.125C73.9512 3.85938 73.4492 3.6543 72.8828 3.50977C72.3164 3.36133 71.6797 3.28711 70.9727 3.28711C70.2656 3.28711 69.627 3.36133 69.0566 3.50977C68.4902 3.6543 67.9883 3.85938 67.5508 4.125C67.1133 4.39062 66.7383 4.70898 66.4258 5.08008C66.1133 5.44727 65.8555 5.85352 65.6523 6.29883C65.4531 6.74414 65.3047 7.22266 65.207 7.73438C65.1133 8.24219 65.0664 8.76758 65.0664 9.31055C65.0664 9.85352 65.1133 10.3809 65.207 10.8926C65.3047 11.4004 65.4531 11.877 65.6523 12.3223C65.8555 12.7676 66.1133 13.1758 66.4258 13.5469C66.7383 13.9141 67.1133 14.2305 67.5508 14.4961C67.9883 14.7617 68.4902 14.9688 69.0566 15.1172C69.627 15.2617 70.2656 15.334 70.9727 15.334Z" fill="black"/>
</svg>
